<?xml version="1.0" encoding="utf-8"?>
<!-- Generator: Adobe Illustrator 23.1.1, SVG Export Plug-In . SVG Version: 6.00 Build 0)  -->
<svg version="1.1" id="Capa_1" xmlns="http://www.w3.org/2000/svg" xmlns:xlink="http://www.w3.org/1999/xlink" x="0px" y="0px"
	 viewBox="0 0 85.1 84.7" style="enable-background:new 0 0 85.1 84.7;" xml:space="preserve">
<style type="text/css">
	.st0{display:none;}
	.st1{clip-path:url(#SVGID_2_);fill:#111010;}
</style>
<circle class="st0" cx="309.8" cy="-80.6" r="239.5"/>
<g>
	<defs>
		<rect id="SVGID_1_" x="0" y="-0.2" width="85.1" height="85.1"/>
	</defs>
	<clipPath id="SVGID_2_">
		<use xlink:href="#SVGID_1_"  style="overflow:visible;"/>
	</clipPath>
	<path class="st1" d="M55.3,39.3l9.6,9.6v10.8v10.8l-7.4,0l-7.4,0l-0.1-9.5l0-9.5h-7.4h-7.4v9.6v9.6h-7.5h-7.5V59.6V48.7l11.2-11
		l11.1-11l1.6,1.5C44.9,29.1,50,34.1,55.3,39.3 M61.6,22.3l0,6.9l-1.4-1.4c-0.8-0.8-2.7-2.9-4.3-4.6l-3-3.2v-2.3v-2.3h4.3h4.3V22.3z
		 M56.9,27.8c7.8,7.9,14.3,14.4,14.3,14.5c0,0.1-1.1,1.2-2.4,2.6l-2.4,2.4l-11.9-12l-11.9-12l-11.9,12l-11.9,12l-2.4-2.4
		C15,43.6,14,42.4,14,42.3c0-0.2,28.4-28.8,28.6-28.8C42.6,13.5,49,20,56.9,27.8 M34.9,0c-6.9,1.3-13.6,4.4-19,8.8
		c-19.5,15.8-21.3,44.9-4,62.9c6.6,6.9,15.1,11.3,24.5,12.7c2.5,0.4,7.3,0.5,10,0.3c13.3-1.2,25.1-8.5,32.4-20
		c1.1-1.6,3.1-5.9,3.9-8c2.4-6.6,3.2-14.5,2-21.6C81.6,17.3,67.7,3.1,50,0C48.2-0.3,36.7-0.3,34.9,0"/>
</g>
</svg>
