<?xml version="1.0" encoding="utf-8"?>
<!-- Generator: Adobe Illustrator 23.1.1, SVG Export Plug-In . SVG Version: 6.00 Build 0)  -->
<svg version="1.1" id="Layer_1" xmlns="http://www.w3.org/2000/svg" xmlns:xlink="http://www.w3.org/1999/xlink" x="0px" y="0px"
	 viewBox="0 0 56.7 56.7" style="enable-background:new 0 0 56.7 56.7;" xml:space="preserve">
<style type="text/css">
	.st0{fill:#111010;}
</style>
<g>
	<path class="st0" d="M28.3,5.2c-13.6,0-24.6,11-24.6,24.6s11,24.6,24.6,24.6s24.6-11,24.6-24.6C53,16.2,41.9,5.2,28.3,5.2z
		 M42.1,41.7c0,1.1-0.9,2-2,2H16.6c-1.1,0-2-0.9-2-2V18.1c0-1.1,0.9-2,2-2H40c1.1,0,2,0.9,2,2L42.1,41.7L42.1,41.7z"/>
	<path class="st0" d="M33.1,26.4c-2.2,0-3.2,1.2-3.7,2.1l0,0l0,0l0,0v-1.8h-4.1c0.1,1.2,0,12.5,0,12.5h4.1v-7c0-0.4,0-0.7,0.1-1
		c0.3-0.7,1-1.5,2.1-1.5c1.5,0,2.1,1.1,2.1,2.8v6.7h4.2V32C37.9,28.2,35.8,26.4,33.1,26.4z"/>
	<path class="st0" d="M20.9,20.7c-1.4,0-2.3,0.9-2.3,2.2c0,1.2,0.9,2.2,2.3,2.2l0,0c1.4,0,2.3-1,2.3-2.2
		C23.2,21.6,22.3,20.7,20.9,20.7z"/>
	<rect x="18.8" y="26.7" class="st0" width="4.2" height="12.5"/>
</g>
</svg>
