<?xml version="1.0" encoding="utf-8"?>
<!-- Generator: Adobe Illustrator 23.1.1, SVG Export Plug-In . SVG Version: 6.00 Build 0)  -->
<svg version="1.1" id="Capa_1" xmlns="http://www.w3.org/2000/svg" xmlns:xlink="http://www.w3.org/1999/xlink" x="0px" y="0px"
	 viewBox="0 0 581.1 581.1" style="enable-background:new 0 0 581.1 581.1;" xml:space="preserve">
<style type="text/css">
	.st0{display:none;}
	.st1{fill:#111010;}
</style>
<circle class="st0" cx="304.1" cy="276.1" r="239.5"/>
<g>
	<path class="st1" d="M283.8,167.2c-31.4,0-56.9,25.5-56.9,56.9s25.5,56.9,56.9,56.9c31.4,0,56.9-25.5,56.9-56.9
		C340.7,192.7,315.2,167.2,283.8,167.2z"/>
	<path class="st1" d="M290.6,0.8C130.5,0.8,0.8,130.5,0.8,290.6s129.7,289.8,289.8,289.8s289.8-129.7,289.8-289.8
		S450.6,0.8,290.6,0.8z M347.2,388c-29.3,54.9-59,99.8-59.3,100.2c-0.8,1.2-2.1,1.9-3.6,2c0,0-0.1,0-0.1,0c-1.4,0-2.7-0.7-3.5-1.8
		c-0.3-0.4-30.2-40.8-59.8-93.4c-39.8-71.1-60-129.6-60-173.9c0-67.6,55-122.7,122.7-122.7h0.6c67.7,0,122.7,55,122.7,122.7
		C406.8,257.8,386.7,313.9,347.2,388z"/>
</g>
</svg>
